<svg id="Layer_1" enable-background="new 0 0 52 52" height="512" viewBox="0 0 52 52" width="512" xmlns="http://www.w3.org/2000/svg"><g><path d="m46.48257 39.09792-1.97673 1.14148-.77029-.44544-.10207-.08361-9.88361 5.71666-.75172 1.45709-1.97673 1.14147h-.00929l-1.96744-1.14147-.7703-1.48474-.21343-.13005-.71461-.40828-1.34567-.77964-.70532-.41757-1.34562-.77941-.70532-.40851-1.34567-.77964-.70532-.41757-1.35496-.77941-.69603-.40851-1.35491-.7887-.70532-.40852-1.34567-.7887-.70532-.40828-1.34562-.77964-.70532-.40828-1.35496-.78893-.69603-.40828-1.35496-.77941-.70527-.40851-1.34567-.7887-.70532-.40851-1.34567-.7887-.54752-.30633-.12994.10196-.77958.44567-1.96744-1.13218v-1.52212l-.04639-17.32647 15.45192-8.91859 28.91777 16.80694.10207 17.7905h-.00929z" fill="#1faa8f"/><g><g><g enable-background="new"><g><path d="m4.01616 32.38305.77481-.45027 1.35985-1.05677-.7748.45027z" fill="#263c49"/></g><g><path d="m5.37602 31.32628.7748-.45027-3.32694-1.92081-.7748.45027z" fill="#41677d"/></g><g><path d="m2.04908 29.40547-.00522 1.83887 1.9723 1.13871 1.35986-1.05677z" fill="#3b5d70"/></g></g><g enable-background="new"><g><path d="m31.01661 48.02456.77481-.45026.00521-1.83888-.7748.45027z" fill="#29404e"/></g><g><path d="m31.02183 46.18569.7748-.45027-3.32695-1.92081-.7748.45026z" fill="#41677d"/></g><g><path d="m27.69488 44.26487 1.34943 2.62098 1.9723 1.13871.00522-1.83887z" fill="#3b5d70"/></g></g></g><g><g enable-background="new"><g><path d="m44.50612 40.24-.77481-.45027-1.35985-1.05677.7748.45027z" fill="#263c49"/></g><g><path d="m43.14626 39.18323-.7748-.45027 3.32693-1.92081.75665.46075z" fill="#41677d"/></g><g><path d="m46.45504 37.2729.02338 1.82839-1.9723 1.13871-1.35986-1.05677z" fill="#3b5d70"/></g></g><g enable-background="new"><g><path d="m31.02286 48.02456-.77481-.45026-.00521-1.83888.7748.45027z" fill="#3b5d70"/></g><g><path d="m31.01764 46.18569-.7748-.45027 3.32695-1.92081.7748.45026z" fill="#41677d"/></g><g><path d="m34.34459 44.26487-1.34943 2.62098-1.9723 1.13871-.00522-1.83887z" fill="#3b5d70"/></g></g></g><path d="m2 12.40048.04933 17.75603.66189.38236.70713.41111 1.34433.7811.70713.41112 1.34844.78524.70302.407 1.34844.78522.70713.41112 1.34845.78524.70301.407 1.34847.7811.70711.41112 1.34847.78524.70299.407 1.34847.78522.7071.41111 1.34847.78525.70299.407 1.34847.78524.70711.41112 1.34435.7811.70713.41112 1.34844.78112.70713.41112 1.34433.7811.70713.41112 1.34845.78524.70301.407.91678.53444-.04933-17.75605-.814-.47277-.70713-.41111-1.34845-.78525-.70301-.407-1.34844-.78521-.70713-.41112-1.34845-.78113-.70301-.41111-1.34847-.78113-.70711-.41112-1.34847-.78521-.70299-.407-1.34847-.78525-.7071-.41111-1.34847-.78522-.70299-.407-1.34847-.78524-.70711-.41112-1.34435-.7811-.70711-.41112-1.34846-.78113-.70302-.41111-1.34844-.78113-.70713-.41111-1.34845-.78522-.70301-.407-1.34845-.78524-.70713-.41112z" fill="#1faa8f"/><g><path d="m46.37229 20.28251-28.91942-16.80396-15.45236 8.92142 28.97521 16.83855z" fill="#1abc9c"/><path d="m43.96747 20.31369-26.51651-15.40998-12.98987 7.49963 26.51671 15.40998z" fill="#1d9981"/></g><g fill="#1c8e78"><path d="m17.129 22.144.157.091"/><path d="m15.078 20.952.157.09"/><path d="m13.022 19.755.157.092"/><path d="m10.971 18.563.157.091"/><path d="m8.919 17.371.157.091"/><path d="m6.864 16.179.157.091"/><path d="m4.812 14.986.157.091"/><path d="m17.286 22.235.55.32"/><path d="m15.23472 21.0424.13472.07781.41111.23845"/><path d="m13.179 19.847.55.319"/><path d="m11.128 18.654.55.32"/><path d="m9.07617 17.46248.13889.08103.407.23845"/><path d="m7.021 16.27.55.32"/><path d="m4.96912 15.07709.13479.07784.41112.23845"/></g><g><path d="m3.03072 29.59456.39217.22829-.00045.17746-.54995-.32013z" fill="#1abc9c"/><path d="m2.87156 29.67963-.04522-15.84848.15811.09182.04472 15.67069.00155.0009-.15823.08562z" fill="#1d9981"/><path d="m2.98445 13.92297.47912.27817-.04068 15.62171-.39372-.22919z" fill="#1c8e78"/></g><g><path d="m5.00635 30.74979.39217.22829-.00045.17746-.54995-.32013z" fill="#1abc9c"/><path d="m4.84719 30.83486-.04522-15.84848.15811.09182.04472 15.67069.00155.0009-.15823.08562z" fill="#1d9981"/><path d="m4.96008 15.0782.47912.27817-.04068 15.62171-.39372-.22919z" fill="#1c8e78"/></g><g><path d="m6.98198 31.90503.39217.22829-.00045.17745-.54995-.32013z" fill="#1abc9c"/><path d="m6.82282 31.99009-.04522-15.84848.15811.09182.04472 15.67069.00155.00091-.15823.08561z" fill="#1d9981"/><path d="m6.93571 16.23343.47912.27817-.04068 15.62172-.39372-.2292z" fill="#1c8e78"/></g><g><path d="m8.95761 33.06026.39217.22829-.00045.17745-.54995-.32013z" fill="#1abc9c"/><path d="m8.79845 33.14532-.04522-15.84847.15811.09181.04472 15.67069.00155.00091-.15823.08561z" fill="#1d9981"/><path d="m8.91134 17.38866.47912.27818-.04068 15.62171-.39372-.2292z" fill="#1c8e78"/></g><g><path d="m10.93324 34.21549.39217.22829-.00045.17745-.54995-.32012z" fill="#1abc9c"/><path d="m10.77408 34.30055-.04522-15.84847.15811.09181.04472 15.6707.00155.0009-.15823.08562z" fill="#1d9981"/><path d="m10.88697 18.54389.47912.27818-.04068 15.62171-.39372-.22919z" fill="#1c8e78"/></g><g><path d="m12.90887 35.37072.39217.22829-.00045.17746-.54995-.32013z" fill="#1abc9c"/><path d="m12.74971 35.45578-.04522-15.84847.15811.09182.04472 15.67069.00155.0009-.15823.08562z" fill="#1d9981"/><path d="m12.8626 19.69913.47912.27817-.04068 15.62171-.39372-.22919z" fill="#1c8e78"/></g><g><path d="m14.8845 36.52596.39217.22829-.00045.17745-.54995-.32013z" fill="#1abc9c"/><path d="m14.72534 36.61102-.04522-15.84848.15811.09182.04472 15.67069.00155.00091-.15823.08561z" fill="#1d9981"/><path d="m14.83823 20.85436.47912.27817-.04068 15.62172-.39372-.2292z" fill="#1c8e78"/></g><g><path d="m16.86013 37.68119.39217.22829-.00045.17745-.54995-.32013z" fill="#1abc9c"/><path d="m16.70097 37.76625-.04522-15.84848.15811.09182.04472 15.67069.00155.00091-.15823.08561z" fill="#1d9981"/><path d="m16.81386 22.00959.47912.27817-.04068 15.62172-.39372-.2292z" fill="#1c8e78"/></g><g><path d="m18.83576 38.83642.39217.22829-.00045.17745-.54995-.32013z" fill="#1abc9c"/><path d="m18.6766 38.92148-.04522-15.84847.15811.09181.04472 15.67069.00155.00091-.15823.08561z" fill="#1d9981"/><path d="m18.78949 23.16482.47912.27818-.04068 15.62171-.39372-.2292z" fill="#1c8e78"/></g><g><path d="m20.81139 39.99165.39217.22829-.00045.17745-.54995-.32013z" fill="#1abc9c"/><path d="m20.65223 40.07671-.04522-15.84847.15811.09181.04472 15.6707.00155.0009-.15823.08561z" fill="#1d9981"/><path d="m20.76512 24.32005.47912.27818-.04068 15.62171-.39372-.22919z" fill="#1c8e78"/></g><g><path d="m22.78702 41.14688.39217.22829-.00045.17746-.54995-.32014z" fill="#1abc9c"/><path d="m22.62786 41.23195-.04522-15.84848.15811.09181.04472 15.6707.00155.0009-.15823.08561z" fill="#1d9981"/><path d="m22.74075 25.47528.47912.27818-.04068 15.62171-.39372-.22919z" fill="#1c8e78"/></g><g><path d="m24.76265 42.30211.39217.22829-.00045.17746-.54995-.32013z" fill="#1abc9c"/><path d="m24.60349 42.38718-.04522-15.84848.15811.09182.04472 15.67069.00155.0009-.15823.08562z" fill="#1d9981"/><path d="m24.71638 26.63052.47912.27817-.04068 15.62171-.39372-.22919z" fill="#1c8e78"/></g><g><path d="m26.73828 43.45734.39217.22829-.00045.17746-.54995-.32013z" fill="#1abc9c"/><path d="m26.57912 43.54241-.04522-15.84848.15811.09182.04471 15.67069.00156.0009-.15823.08562z" fill="#1d9981"/><path d="m26.69201 27.78575.47912.27817-.04068 15.62171-.39373-.22919z" fill="#1c8e78"/></g><g><path d="m28.71391 44.61258.39217.22829-.00045.17745-.54995-.32013z" fill="#1abc9c"/><path d="m28.55475 44.69764-.04522-15.84848.15811.09182.04471 15.67069.00156.00091-.15823.08561z" fill="#1d9981"/><path d="m28.66764 28.94098.47912.27817-.04068 15.62172-.39373-.2292z" fill="#1c8e78"/></g><path d="m30.97572 29.23852.05034 17.75594 15.44761-8.91868-.10138-17.79327z" fill="#1d9981"/><path d="m32.11506 44.38829.00207.71553 13.25602-7.65315-.61488-.36171z" fill="#1abc9c"/><path d="m45.37315 37.43963v-15.24051l-.61488.35482v14.52833z" fill="#1faa8f"/><path d="m44.75827 37.08227v.00669l.61488.36171v-.01104z" fill="#1faa8f"/><path d="m44.75827 22.55394-12.5437 7.23877 12.5437 7.28956z" fill="#363a44"/><path d="m44.75914 37.07785v.01098l-12.64201 7.30227v-1.68849l-.01097-3.73884-.01098-1.63369v-1.31574l-.01091-3.16874-.01097-1.3925v-1.57888l.14254-.07676.83331.48244 2.8617 1.66661.18638.10962z" fill="#5b5e71"/><g><path d="m36.09723 31.83689-.18638.10962-1.00878.58115-.49334.28502-1.19516.69076-1.1293-.65784-.01097-1.3925v-.61401l.97585-.55919.18638-.10962z" fill="#f1c40f"/><path d="m33.22455 35.68541v.98676l-1.04163-.60303-.08774-.0548-.01091-3.16874 1.1293.65784z" fill="#e5bd13"/><path d="m33.21642 33.49932.00901 3.17834 2.88082-1.66325-.00901-3.17834z" fill="#d6b218"/><g><path d="m35.34558 33.72564-.0638.03684.0033.36139.06453.04124z" fill="#e5bd13"/><path d="m35.28508 34.12387v.00002l-1.30858.75555.00073.07805 1.37238-.79238z" fill="#f1c40f"/><path d="m35.28178 33.76248-1.30871.75557.00343.36139 1.30858-.75555z" fill="#4c7891"/></g><path d="m34.90143 32.52573v.97353l-.24133-.10143-.24682.36472v-.95435h-.00001z" fill="#d4d6d6"/><path d="m34.90207 32.52766-.49334.28502-2.33543-1.35958v-.57011z" fill="#ecf0f1"/></g><g><path d="m36.92791 33.11864 3.51793 2.04439 3.54094-2.04436-3.51793-2.0444z" fill="#f1c40f"/><path d="m36.92791 33.11864.01107 3.90662 3.51793 2.0444-.01107-3.90663z" fill="#e5bd13"/><path d="m37.26237 36.78848-.00263-.92453 1.50992.87744.00263.92453z" fill="#fff"/><path d="m40.44584 35.16303.01107 3.90663 3.54095-2.04437-.01108-3.90662z" fill="#d6b218"/><g><path d="m43.06288 35.44122-.07842.04528.00405.44419.07932.0507z" fill="#e5bd13"/><path d="m42.98851 35.93069v.00003l-1.60842.92867.0009.09594 1.68684-.97394z" fill="#f1c40f"/><path d="m42.98446 35.4865-1.60859.92869.00422.4442 1.60842-.92867z" fill="#4c7891"/></g><path d="m42.51696 33.96635v1.19661l-.29663-.12468-.30338.4483v-1.17302h-.00001z" fill="#d4d6d6"/><path d="m38.99784 31.92366 3.51912 2.04269-.60002.34721-3.51911-2.04269z" fill="#ecf0f1"/></g><g><path d="m36.39328 37.53834-1.40347.81142-.57011.32892-1.41445.81136-.89909-.52627-.01098-1.63369v-1.2171l.08774-.04384.84428-.49341.19735.10968.84428.50433z" fill="#f1c40f"/><path d="m33.01622 43.22887-.89909-.52626-.01097-3.73884.89909.52627z" fill="#e5bd13"/><path d="m33.00905 39.49429.0106 3.7391 3.38911-1.9567-.0106-3.7391z" fill="#d6b218"/><g><path d="m35.51387 39.76055-.07506.04333.00388.42515.07592.04852z" fill="#e5bd13"/><path d="m35.44269 40.22903v.00003l-1.53945.88884.00086.09183 1.61451-.93218z" fill="#f1c40f"/><path d="m35.43881 39.80388-1.53961.88888.00404.42514 1.53945-.88884z" fill="#4c7891"/></g><path d="m34.99136 38.34892v1.1453l-.28391-.11933-.29037.42908v-1.12273h-.00001z" fill="#d4d6d6"/><path d="m34.98981 38.34976-.57011.32892-2.32452-1.3486v-.65791z" fill="#ecf0f1"/></g></g><g><g><g><g enable-background="new"><g><path d="m37.84087 48.52145.40299-.23419.0446-15.26326-.403.23419z" fill="#525566"/></g><g><path d="m37.88546 33.25819.403-.23419-5.84994-3.37746-.40299.23419z" fill="#5b5e71"/></g><g><path d="m32.03553 29.88073-.04459 15.26326 5.84993 3.37746.04459-15.26326z" fill="#474b59"/></g></g></g><g><g enable-background="new"><g><path d="m49.55241 41.7061.40299-.23419.0446-15.26326-.40299.23419z" fill="#525566"/></g><g><path d="m49.59701 26.44284.40299-.23419-5.84993-3.37746-.40299.23419z" fill="#5b5e71"/></g><g><path d="m43.74708 23.06538-.0446 15.26326 5.84993 3.37746.0446-15.26326z" fill="#474b59"/></g></g></g></g><g><g><path d="m32.61795 32.90729.27216.15757v1.4204l-.27216.20216z" fill="#525566"/><path d="m32.89011 34.48526 4.2373 2.44481-.00321.35746-4.50625-2.60011z" fill="#5b5e71"/></g><path d="m32.89011 33.06486 4.24987 2.45841-.01257 1.4068-4.2373-2.44481z" fill="#3f434f"/></g><g><g><path d="m32.61795 37.01097.27216.15757v1.4204l-.27216.20216z" fill="#525566"/><path d="m32.89011 38.58894 4.2373 2.4448-.00321.35747-4.50625-2.60011z" fill="#5b5e71"/></g><path d="m32.89011 37.16854 4.24987 2.45841-.01257 1.40679-4.2373-2.4448z" fill="#3f434f"/></g><g><g><path d="m32.61795 41.11465.27216.15757v1.4204l-.27216.20216z" fill="#525566"/><path d="m32.89011 42.69262 4.2373 2.4448-.00321.35747-4.50625-2.60011z" fill="#5b5e71"/></g><path d="m32.89011 41.27222 4.24987 2.45841-.01257 1.40679-4.2373-2.4448z" fill="#3f434f"/></g><g><g><path d="m44.38873 25.89722.27216.15757v1.4204l-.27216.20216z" fill="#525566"/><path d="m44.66089 27.47519 4.23731 2.4448-.00321.35746-4.50626-2.6001z" fill="#5b5e71"/></g><path d="m44.66089 26.05479 4.24987 2.4584-.01256 1.4068-4.23731-2.4448z" fill="#3f434f"/></g><g><g><path d="m44.38873 30.0009.27216.15757v1.4204l-.27216.20216z" fill="#525566"/><path d="m44.66089 31.57887 4.23731 2.4448-.00321.35746-4.50626-2.6001z" fill="#5b5e71"/></g><path d="m44.66089 30.15847 4.24987 2.4584-.01256 1.4068-4.23731-2.4448z" fill="#3f434f"/></g><g><g><path d="m44.38873 34.10458.27216.15757v1.4204l-.27216.20216z" fill="#525566"/><path d="m44.66089 35.68255 4.23731 2.4448-.00321.35746-4.50626-2.6001z" fill="#5b5e71"/></g><path d="m44.66089 34.26215 4.24987 2.4584-.01256 1.4068-4.23731-2.4448z" fill="#3f434f"/></g></g></g></svg>